# xmcd
#
# Track frame offsets:
#	150
#	12463
#	25129
#	35063
#	44805
#	55632
#	65414
#	76769
#	87691
#	98259
#	108388
#	116607
#	124276
#	135928
#	144155
#	156063
#	165248
#	177742
#	189423
#	196971
#
# Disc length: 2761 seconds
#
# Revision: 1
# Processed by: cddbd v1.5.2PL0 Copyright (c) Steve Scherf et al.
# Submitted via: audiograbber 1.83.01
#
DISCID=070ac714
DTITLE=Johnny Cash and June Carter - Johnny and June CD1
DYEAR=2009
DGENRE=Country
TTITLE0=Johnny Cash - I Walk the Line
TTITLE1=Johnny Cash - Folsom Prison Blues
TTITLE2=Johnny Cash - Hey Porter
TTITLE3=Johnny Cash - Rock Island Line
TTITLE4=Johnny Cash - I Heard That Lonesome Whistle Blow
TTITLE5=Johnny Cash - Ballad of a Teenage Queen
TTITLE6=Johnny Cash - Big River
TTITLE7=Johnny Cash - Cry Cry Cry
TTITLE8=Johnny Cash - Train of Love
TTITLE9=Johnny Cash - The Ways of a Woman in Love
TTITLE10=Johnny Cash - The Wreck of the Old '97
TTITLE11=Johnny Cash - If the Good Lord's Willing
TTITLE12=Johnny Cash - So Doggone Lonesome
TTITLE13=Johnny Cash - Guess Things Happen That Way
TTITLE14=Johnny Cash - Home of the Blues
TTITLE15=Johnny Cash - I Couldn't Keep from Crying
TTITLE16=Johnny Cash - Next in Line
TTITLE17=Johnny Cash - Doin' My Time
TTITLE18=Johnny Cash - Come in Stranger
TTITLE19=Johnny Cash - Get Rhythm
EXTD=
EXTT0=
EXTT1=
EXTT2=
EXTT3=
EXTT4=
EXTT5=
EXTT6=
EXTT7=
EXTT8=
EXTT9=
EXTT10=
EXTT11=
EXTT12=
EXTT13=
EXTT14=
EXTT15=
EXTT16=
EXTT17=
EXTT18=
EXTT19=
PLAYORDER=
